<svg width="20" height="20" viewBox="0 0 20 20" fill="none" xmlns="http://www.w3.org/2000/svg">
<path d="M20 10C20 4.47715 15.5228 0 10 0C4.47715 0 0 4.47715 0 10C0 15.5228 4.47715 20 10 20C15.5228 20 20 15.5228 20 10Z" fill="white"/>
<path fill-rule="evenodd" clip-rule="evenodd" d="M14.8938 10.1136C14.8938 9.75909 14.8619 9.41819 14.8029 9.09091H10.0938V11.025H12.7847C12.6688 11.65 12.3165 12.1796 11.7869 12.5341V13.7886H13.4028C14.3483 12.9182 14.8938 11.6364 14.8938 10.1136Z" fill="#4285F4"/>
<path fill-rule="evenodd" clip-rule="evenodd" d="M10.0934 15C11.4434 15 12.5753 14.5523 13.4025 13.7886L11.7866 12.5341C11.3389 12.8341 10.7662 13.0113 10.0934 13.0113C8.79116 13.0113 7.68888 12.1318 7.2957 10.95H5.62524V12.2454C6.44797 13.8795 8.13889 15 10.0934 15Z" fill="#34A853"/>
<path fill-rule="evenodd" clip-rule="evenodd" d="M7.29603 10.95C7.19603 10.65 7.13921 10.3295 7.13921 9.99998C7.13921 9.67043 7.19603 9.34997 7.29603 9.04997V7.75452H5.62557C5.28693 8.42952 5.09375 9.19316 5.09375 9.99998C5.09375 10.8068 5.28693 11.5704 5.62557 12.2454L7.29603 10.95Z" fill="#FBBC05"/>
<path fill-rule="evenodd" clip-rule="evenodd" d="M10.0934 6.98864C10.8275 6.98864 11.4866 7.24091 12.0048 7.73637L13.4389 6.30228C12.573 5.49546 11.4412 5 10.0934 5C8.13889 5 6.44797 6.12046 5.62524 7.75455L7.2957 9.05001C7.68888 7.86819 8.79116 6.98864 10.0934 6.98864Z" fill="#EA4335"/>
</svg>
